<svg width="107" height="108" viewBox="0 0 107 108" fill="none" xmlns="http://www.w3.org/2000/svg">
<g id="User avatar">
<path id="Vector" d="M53.2799 26.892C49.9868 26.892 46.7677 27.8777 44.0296 29.7245C41.2916 31.5714 39.1575 34.1963 37.8973 37.2675C36.6371 40.3386 36.3074 43.7181 36.9498 46.9784C37.5923 50.2387 39.178 53.2335 41.5066 55.5841C43.8351 57.9347 46.8019 59.5354 50.0316 60.1839C53.2614 60.8325 56.6092 60.4996 59.6516 59.2275C62.694 57.9554 65.2943 55.8011 67.1239 53.0372C68.9534 50.2732 69.9299 47.0236 69.9299 43.6994C69.9299 39.2418 68.1757 34.9668 65.0532 31.8147C61.9307 28.6627 57.6957 26.892 53.2799 26.892ZM53.2799 53.7839C51.3041 53.7839 49.3726 53.1925 47.7297 52.0844C46.0869 50.9763 44.8065 49.4013 44.0503 47.5586C43.2942 45.7159 43.0964 43.6882 43.4818 41.732C43.8673 39.7758 44.8188 37.979 46.2159 36.5686C47.613 35.1583 49.3931 34.1978 51.3309 33.8087C53.2688 33.4196 55.2775 33.6193 57.1029 34.3826C58.9283 35.1458 60.4886 36.4384 61.5863 38.0968C62.684 39.7552 63.2699 41.7049 63.2699 43.6994C63.2669 46.3731 62.2134 48.9363 60.3406 50.8269C58.4677 52.7174 55.9285 53.7809 53.2799 53.7839Z" fill="black"/>
<path id="Vector_2" d="M53.2802 6.72299C44.0596 6.72299 35.0461 9.48307 27.3795 14.6542C19.7129 19.8253 13.7375 27.1752 10.2089 35.7745C6.68036 44.3737 5.75712 53.8361 7.55597 62.965C9.35481 72.094 13.7949 80.4794 20.3149 87.061C26.8348 93.6426 35.1417 98.1247 44.1851 99.9406C53.2285 101.756 62.6022 100.824 71.1209 97.2625C79.6396 93.7006 86.9206 87.6687 92.0433 79.9296C97.166 72.1904 99.9002 63.0917 99.9002 53.7839C99.8863 41.3069 94.97 29.3449 86.2301 20.5223C77.4902 11.6998 65.6403 6.73705 53.2802 6.72299ZM33.3002 88.6645V84.0374C33.3031 81.3637 34.3565 78.8004 36.2294 76.9098C38.1023 75.0192 40.6416 73.9558 43.2902 73.9529H63.2702C65.9188 73.9558 68.4581 75.0192 70.331 76.9098C72.2038 78.8004 73.2573 81.3637 73.2602 84.0374V88.6645C67.1968 92.2385 60.3015 94.1219 53.2802 94.1219C46.2588 94.1219 39.3635 92.2385 33.3002 88.6645ZM79.8952 83.788C79.829 79.3785 78.0492 75.1718 74.9394 72.0746C71.8296 68.9773 67.6388 67.2374 63.2702 67.2299H43.2902C38.9215 67.2374 34.7307 68.9773 31.6209 72.0746C28.5111 75.1718 26.7314 79.3785 26.6652 83.788C20.6264 78.3448 16.3679 71.1786 14.4535 63.238C12.5391 55.2975 13.0591 46.9572 15.9447 39.3216C18.8303 31.686 23.9453 25.1153 30.6124 20.4795C37.2796 15.8436 45.1844 13.3614 53.2802 13.3614C61.3759 13.3614 69.2808 15.8436 75.9479 20.4795C82.6151 25.1153 87.7301 31.686 90.6157 39.3216C93.5013 46.9572 94.0213 55.2975 92.1069 63.238C90.1925 71.1786 85.9339 78.3448 79.8952 83.788Z" fill="black"/>
</g>
</svg>
