<svg width="240" height="240" viewBox="0 0 240 240" fill="none" xmlns="http://www.w3.org/2000/svg">
<path d="M203.027 29.8438C200.138 29.9695 197.486 30.8006 195.156 31.7188C193.004 32.5664 185.275 35.8148 172.969 40.9766C160.662 46.1384 144.355 52.9824 126.973 60.293C92.2084 74.9142 53.1424 91.3613 33.125 99.7852C32.4376 100.072 29.6459 100.926 26.5625 103.281C23.472 105.642 20.0391 110.765 20.0391 116.367C20.0391 120.887 22.2952 125.49 25.0195 128.125C27.7439 130.76 30.5049 131.992 32.8125 132.91V132.891C40.6128 135.998 63.9069 145.319 69.4531 147.539C71.4204 153.434 79.8659 178.673 81.875 185.02H81.8555C83.2756 189.512 84.6598 192.439 86.582 194.883C87.5432 196.105 88.6904 197.212 90.0977 198.086C90.6376 198.421 91.2355 198.682 91.8359 198.926C91.9196 198.961 92.0059 198.97 92.0898 199.004L91.8555 198.945C92.0296 199.015 92.1858 199.119 92.3633 199.18C92.6524 199.279 92.8529 199.276 93.2422 199.355C94.6122 199.777 95.9798 200.059 97.2461 200.059C102.682 200.059 106.016 197.109 106.016 197.109L106.23 196.953L129.707 177.09L158.457 203.691C158.982 204.433 163.096 210 172.617 210C178.298 210 182.79 207.188 185.664 204.238C188.538 201.289 190.328 198.271 191.133 194.18L191.152 194.16C191.794 190.858 219.316 52.6563 219.316 52.6563L219.258 52.8907C220.114 49.0672 220.367 45.3697 219.355 41.6016C218.344 37.8335 215.613 34.1563 212.324 32.2266C209.036 30.2969 205.917 29.7181 203.027 29.8438ZM199.082 51.7383C197.994 57.1986 173.34 181.059 171.816 188.828L130.293 150.41L102.227 174.141L110 143.75C110 143.75 163.625 89.4686 166.855 86.3086C169.455 83.7786 170 82.8918 170 82.0118C170 80.8418 169.398 80 168.008 80C166.758 80 165.06 81.1978 164.16 81.7578C152.724 88.8879 104.013 116.647 80.0586 130.273C78.617 129.695 56.974 121.005 45.3125 116.348C66.0551 107.618 101.612 92.6581 134.727 78.7305C152.106 71.4211 168.408 64.571 180.703 59.4141C191.082 55.061 196.495 52.8071 199.082 51.7383ZM171.523 190.254H171.543L171.523 190.313C171.536 190.248 171.514 190.305 171.523 190.254Z" fill="white"/>
</svg>
