<svg width="800" height="800" viewBox="0 0 800 800" fill="none" xmlns="http://www.w3.org/2000/svg">
<g clip-path="url(#clip0_24_25)">
<path fill-rule="evenodd" clip-rule="evenodd" d="M688.513 461.496C715.05 487.404 743.059 511.781 766.86 540.302C777.374 552.977 787.328 566.056 794.943 580.765C805.733 601.674 795.96 624.684 777.211 625.932L660.665 625.88C630.606 628.374 606.626 616.273 586.463 595.721C570.327 579.285 555.384 561.793 539.868 544.802C533.508 537.858 526.85 531.323 518.896 526.159C502.986 515.831 489.176 518.993 480.084 535.587C470.824 552.464 468.724 571.153 467.814 589.962C466.566 617.406 458.27 624.621 430.703 625.877C371.788 628.656 315.876 619.742 263.935 590.022C218.142 563.822 182.631 526.834 151.723 484.96C91.5441 403.422 45.4592 313.826 4.03978 221.719C-5.28339 200.967 1.53485 189.828 24.4314 189.434C62.4522 188.695 100.468 188.748 138.533 189.381C153.986 189.607 164.216 198.47 170.183 213.069C190.753 263.648 215.923 311.77 247.517 356.375C255.931 368.251 264.51 380.126 276.727 388.485C290.243 397.74 300.533 394.672 306.892 379.616C310.926 370.07 312.693 359.787 313.602 349.562C316.614 314.386 317.011 279.269 311.728 244.216C308.485 222.339 296.162 208.177 274.333 204.037C263.193 201.927 264.852 197.782 270.246 191.423C279.613 180.457 288.424 173.631 305.987 173.631H437.703C458.439 177.724 463.044 187.039 465.882 207.904L465.995 354.212C465.769 362.289 470.03 386.258 484.579 391.605C496.223 395.411 503.898 386.095 510.884 378.712C542.421 345.241 564.928 305.685 585.036 264.726C593.96 246.716 601.632 228.012 609.068 209.323C614.577 195.455 623.222 188.632 638.843 188.934L765.612 189.047C769.37 189.047 773.174 189.102 776.814 189.725C798.176 193.366 804.029 202.555 797.432 223.414C787.036 256.141 766.81 283.414 747.034 310.814C725.893 340.066 703.283 368.316 682.318 397.742C663.057 424.613 664.587 438.157 688.513 461.496Z" fill="white"/>
</g>
<defs>
<clipPath id="clip0_24_25">
<rect width="800" height="800" fill="white"/>
</clipPath>
</defs>
</svg>
