<svg width="240" height="240" viewBox="0 0 240 240" fill="none" xmlns="http://www.w3.org/2000/svg">
<path d="M56.7969 20L71.582 73.4375V99.0625H84.3945V73.4375L99.375 20H86.4648L81.0938 44.3164C79.5838 51.4164 78.6236 56.4627 78.1836 59.4727H77.793C77.163 55.2627 76.2028 50.1788 74.8828 44.2188L69.707 20H56.7969ZM114.316 40.1758C109.976 40.1758 106.479 41.0239 103.809 42.7539C101.139 44.4739 99.1702 47.2261 97.9102 50.9961C96.6602 54.7661 96.0352 59.7566 96.0352 65.9766V74.375C96.0352 80.525 96.5758 85.4502 97.6758 89.1602C98.7758 92.8702 100.632 95.6033 103.242 97.3633C105.852 99.1233 109.443 100 114.023 100C118.483 100 122.029 99.1323 124.629 97.4023C127.229 95.6723 129.113 92.9588 130.273 89.2188C131.433 85.4787 132.012 80.535 132.012 74.375V65.9766C132.012 59.7666 131.424 54.7947 130.234 51.0547C129.044 47.3247 127.15 44.5725 124.57 42.8125C121.99 41.0525 118.586 40.1758 114.316 40.1758ZM138.789 41.3086V84.4531C138.789 89.7931 139.684 93.7205 141.504 96.2305C143.324 98.7405 146.15 100 149.98 100C155.5 100 159.662 97.3322 162.422 91.9922H162.695L163.828 99.0625H174.004V41.3086H161.016V87.1875C160.516 88.2575 159.751 89.1342 158.711 89.8242C157.671 90.5242 156.599 90.8594 155.469 90.8594C154.149 90.8594 153.207 90.3187 152.637 89.2188C152.067 88.1188 151.777 86.2714 151.777 83.6914V41.3086H138.789ZM114.023 49.1211C115.843 49.1211 117.132 50.0722 117.852 51.9922C118.572 53.9022 118.926 56.9438 118.926 61.0938V79.082C118.926 83.352 118.572 86.4403 117.852 88.3203C117.132 90.2003 115.853 91.1423 114.043 91.1523C112.223 91.1523 110.963 90.2003 110.273 88.3203C109.573 86.4403 109.238 83.352 109.238 79.082V61.0938C109.238 56.9537 109.593 53.9122 110.312 51.9922C111.032 50.0822 112.263 49.1211 114.023 49.1211ZM50 110C39 110 30 119 30 130V200C30 211 39 220 50 220H190C201 220 210 211 210 200V130C210 119 201 110 190 110H50ZM120.488 130H131.055V155.684H131.133C132.083 153.824 133.445 152.331 135.195 151.191C136.945 150.051 138.839 149.492 140.859 149.492C143.459 149.492 145.493 150.183 146.973 151.562C148.453 152.942 149.535 155.172 150.195 158.242C150.855 161.322 151.172 165.595 151.172 171.055V178.77H151.191C151.191 186.04 150.305 191.365 148.555 194.785C146.805 198.205 144.081 199.922 140.371 199.922C138.301 199.922 136.427 199.446 134.727 198.496C133.027 197.546 131.748 196.24 130.898 194.59H130.664L129.551 199.199H120.488V130ZM54.8633 132.461H87.3828V141.309H76.4844V199.199H65.7617V141.309H54.8633V132.461ZM170.977 149.512C174.737 149.512 177.628 150.202 179.648 151.582C181.658 152.962 183.076 155.117 183.906 158.027C184.726 160.947 185.137 164.977 185.137 170.117V178.477H166.777V180.957C166.777 184.087 166.861 186.428 167.051 187.988C167.241 189.548 167.623 190.696 168.203 191.406C168.783 192.126 169.678 192.48 170.898 192.48C172.538 192.48 173.667 191.836 174.277 190.566C174.887 189.296 175.223 187.189 175.273 184.219L184.746 184.766C184.796 185.186 184.824 185.783 184.824 186.523C184.824 191.033 183.583 194.401 181.113 196.621C178.643 198.851 175.174 199.961 170.664 199.961C165.254 199.961 161.457 198.253 159.277 194.863C157.097 191.473 156.016 186.231 156.016 179.121V170.605C156.016 163.285 157.145 157.94 159.395 154.57C161.645 151.2 165.517 149.512 170.977 149.512ZM84.1016 150.449H95.0977V186.25C95.0977 188.42 95.3403 189.978 95.8203 190.898C96.3003 191.828 97.0831 192.285 98.2031 192.285C99.1531 192.285 100.087 191.996 100.957 191.406C101.837 190.826 102.461 190.08 102.891 189.18V150.449H113.887V199.199H113.867H105.273L104.336 193.223H104.082C101.742 197.743 98.2442 200 93.5742 200C90.3342 200 87.9658 198.936 86.4258 196.816C84.8858 194.696 84.1016 191.375 84.1016 186.875V150.449ZM170.742 156.934C169.572 156.934 168.705 157.289 168.145 157.969C167.585 158.659 167.211 159.788 167.031 161.348C166.841 162.908 166.758 165.277 166.758 168.457V171.953H174.785V168.457C174.785 165.327 174.683 162.968 174.473 161.348C174.273 159.728 173.88 158.59 173.32 157.93C172.76 157.27 171.912 156.934 170.742 156.934ZM135.918 157.285C134.858 157.285 133.888 157.705 132.988 158.555C132.088 159.405 131.444 160.496 131.074 161.816V189.492C131.554 190.342 132.179 190.976 132.949 191.406C133.719 191.826 134.539 192.051 135.449 192.051C136.619 192.051 137.533 191.631 138.223 190.781C138.913 189.931 139.417 188.504 139.707 186.484C139.997 184.474 140.137 181.675 140.137 178.125V171.855C140.137 168.035 140.025 165.097 139.785 163.027C139.545 160.957 139.116 159.464 138.516 158.594C137.906 157.724 137.038 157.285 135.918 157.285Z" fill="white"/>
</svg>
